<svg width="20" height="19" viewBox="0 0 20 19" fill="none" xmlns="http://www.w3.org/2000/svg">
<g filter="url(#filter0_d_3693_41362)">
<path d="M16.25 1.91666L15 0.666664L13.75 1.91666L12.5 0.666664L11.25 1.91666L10 0.666664L8.75 1.91666L7.5 0.666664L6.25 1.91666L5 0.666664L3.75 1.91666L2.5 0.666664V17.3333L3.75 16.0833L5 17.3333L6.25 16.0833L7.5 17.3333L8.75 16.0833L10 17.3333L11.25 16.0833L12.5 17.3333L13.75 16.0833L15 17.3333L16.25 16.0833L17.5 17.3333V0.666664L16.25 1.91666ZM15.8333 14.9083H4.16667V3.09166H15.8333V14.9083ZM5 11.5H15V13.1667H5V11.5ZM5 8.16666H15V9.83333H5V8.16666ZM5 4.83333H15V6.5H5V4.83333Z" fill="black" fill-opacity="0.6" shape-rendering="crispEdges"/>
<path d="M15.8964 2.27022L16.2179 2.59166H15.8333H13.7821L14.1036 2.27022L15 1.37377L15.8964 2.27022ZM16.3333 2.59166H16.2821L16.6036 2.27022L17 1.87377V16.1262L16.6036 15.7298L16.2821 15.4083H16.3333V14.9083V3.09166V2.59166ZM15.8964 15.7298L15 16.6262L14.1036 15.7298L13.7821 15.4083H15.8333H16.2179L15.8964 15.7298ZM11.2821 15.4083H13.7179L13.3964 15.7298L12.5 16.6262L11.6036 15.7298L11.2821 15.4083ZM8.78211 15.4083H11.2179L10.8964 15.7298L10 16.6262L9.10355 15.7298L8.78211 15.4083ZM6.28211 15.4083H8.71789L8.39645 15.7298L7.5 16.6262L6.60355 15.7298L6.28211 15.4083ZM4.16667 15.4083H6.21789L5.89645 15.7298L5 16.6262L4.10355 15.7298L3.78211 15.4083H4.16667ZM3.66667 15.4083H3.71789L3.39645 15.7298L3 16.1262V1.87377L3.39645 2.27022L3.71789 2.59166H3.66667V3.09166V14.9083V15.4083ZM4.16667 2.59166H3.78211L4.10355 2.27022L5 1.37377L5.89645 2.27022L6.21789 2.59166H4.16667ZM8.71789 2.59166H6.28211L6.60355 2.27022L7.5 1.37377L8.39645 2.27022L8.71789 2.59166ZM11.2179 2.59166H8.78211L9.10355 2.27022L10 1.37377L10.8964 2.27022L11.2179 2.59166ZM13.7179 2.59166H11.2821L11.6036 2.27022L12.5 1.37377L13.3964 2.27022L13.7179 2.59166ZM5.5 12H14.5V12.6667H5.5V12ZM5.5 8.66666H14.5V9.33333H5.5V8.66666ZM5.5 5.33333H14.5V6H5.5V5.33333Z" stroke="black" shape-rendering="crispEdges"/>
</g>
<defs>
<filter id="filter0_d_3693_41362" x="-1.5" y="0.666664" width="23" height="24.6667" filterUnits="userSpaceOnUse" color-interpolation-filters="sRGB">
<feFlood flood-opacity="0" result="BackgroundImageFix"/>
<feColorMatrix in="SourceAlpha" type="matrix" values="0 0 0 0 0 0 0 0 0 0 0 0 0 0 0 0 0 0 127 0" result="hardAlpha"/>
<feOffset dy="4"/>
<feGaussianBlur stdDeviation="2"/>
<feComposite in2="hardAlpha" operator="out"/>
<feColorMatrix type="matrix" values="0 0 0 0 0 0 0 0 0 0 0 0 0 0 0 0 0 0 0.25 0"/>
<feBlend mode="normal" in2="BackgroundImageFix" result="effect1_dropShadow_3693_41362"/>
<feBlend mode="normal" in="SourceGraphic" in2="effect1_dropShadow_3693_41362" result="shape"/>
</filter>
</defs>
</svg>
