<svg width="500" height="159" viewBox="0 0 500 159" fill="none" xmlns="http://www.w3.org/2000/svg">
  <rect width="500" height="158.333" fill="white"/>
  <path d="M246.453 85.4361C251.17 85.4361 254.995 83.9114 254.995 82.0306C254.995 80.1499 251.17 78.6252 246.453 78.6252C241.736 78.6252 237.912 80.1499 237.912 82.0306C237.912 83.9114 241.736 85.4361 246.453 85.4361Z" fill="#FFA800"/>
  <path d="M254.939 78.6252H237.912V82.0315H254.939V78.6252Z" fill="#FFA800"/>
  <path d="M246.453 82.03C251.171 82.03 254.995 80.5054 254.995 78.6246C254.995 76.7439 251.171 75.2192 246.453 75.2192C241.736 75.2192 237.912 76.7439 237.912 78.6246C237.912 80.5054 241.736 82.03 246.453 82.03Z" fill="#FFC11D"/>
  <path d="M246.453 81.752C251.17 81.752 254.995 80.2273 254.995 78.3466C254.995 76.4658 251.17 74.9412 246.453 74.9412C241.736 74.9412 237.912 76.4658 237.912 78.3466C237.912 80.2273 241.736 81.752 246.453 81.752Z" fill="#FFA800"/>
  <path d="M254.939 74.9412H237.912V78.3474H254.939V74.9412Z" fill="#FFA800"/>
  <path d="M246.453 78.3457C251.171 78.3457 254.995 76.8211 254.995 74.9403C254.995 73.0596 251.171 71.5349 246.453 71.5349C241.736 71.5349 237.912 73.0596 237.912 74.9403C237.912 76.8211 241.736 78.3457 246.453 78.3457Z" fill="#FFC11D"/>
  <path d="M246.453 78.0676C251.17 78.0676 254.995 76.543 254.995 74.6622C254.995 72.7815 251.17 71.2568 246.453 71.2568C241.736 71.2568 237.912 72.7815 237.912 74.6622C237.912 76.543 241.736 78.0676 246.453 78.0676Z" fill="#FFA800"/>
  <path d="M254.939 71.2568H237.912V74.6631H254.939V71.2568Z" fill="#FFA800"/>
  <path d="M246.453 74.6611C251.171 74.6611 254.995 73.1365 254.995 71.2558C254.995 69.375 251.171 67.8503 246.453 67.8503C241.736 67.8503 237.912 69.375 237.912 71.2558C237.912 73.1365 241.736 74.6611 246.453 74.6611Z" fill="#FFC11D"/>
  <path d="M246.453 74.3819C251.17 74.3819 254.995 72.8572 254.995 70.9765C254.995 69.0957 251.17 67.571 246.453 67.571C241.736 67.571 237.912 69.0957 237.912 70.9765C237.912 72.8572 241.736 74.3819 246.453 74.3819Z" fill="#FFA800"/>
  <path d="M254.939 67.571H237.912V70.9773H254.939V67.571Z" fill="#FFA800"/>
  <path d="M246.453 70.9776C251.171 70.9776 254.995 69.4529 254.995 67.5722C254.995 65.6914 251.171 64.1667 246.453 64.1667C241.736 64.1667 237.912 65.6914 237.912 67.5722C237.912 69.4529 241.736 70.9776 246.453 70.9776Z" fill="#FFC11D"/>
  <path d="M246.453 70.6421C251.17 70.6421 254.995 69.1175 254.995 67.2367C254.995 65.3559 251.17 63.8313 246.453 63.8313C241.736 63.8313 237.912 65.3559 237.912 67.2367C237.912 69.1175 241.736 70.6421 246.453 70.6421Z" fill="#FFA800"/>
  <path d="M254.939 63.8867H237.912V67.293H254.939V63.8867Z" fill="#FFA800"/>
  <path d="M246.453 67.292C251.171 67.292 254.995 65.7674 254.995 63.8866C254.995 62.0058 251.171 60.4812 246.453 60.4812C241.736 60.4812 237.912 62.0058 237.912 63.8866C237.912 65.7674 241.736 67.292 246.453 67.292Z" fill="#FFC11D"/>
  <path d="M246.676 64.7807V64.2781C246.732 64.2781 246.732 64.334 246.788 64.334L246.844 64.3898L246.9 64.4456V64.5015V64.5573C246.9 64.5573 246.9 64.6132 246.844 64.6132L246.788 64.669C246.732 64.7807 246.732 64.7807 246.676 64.7807ZM246.174 63.4964C246.118 63.4964 246.062 63.4405 246.062 63.4405C246.006 63.4405 246.006 63.3847 245.951 63.3847L245.895 63.3288C245.895 63.3288 245.895 63.273 245.895 63.2172C245.895 63.1613 245.895 63.1613 245.895 63.1613L245.951 63.1055C245.951 63.1055 246.006 63.0496 246.062 63.0496C246.118 63.0496 246.118 62.9938 246.174 62.9938V63.4964ZM246.62 62.1003H246.23L246.174 62.1562V62.4354C246.006 62.4354 245.839 62.4912 245.727 62.5471C245.616 62.6029 245.504 62.6588 245.392 62.7146C245.281 62.7704 245.225 62.8821 245.225 62.938C245.169 62.9938 245.169 63.1055 245.169 63.1613C245.169 63.273 245.225 63.3847 245.281 63.4964C245.336 63.608 245.392 63.6639 245.504 63.7197C245.616 63.7756 245.727 63.8314 245.839 63.8872C245.951 63.9431 246.062 63.9989 246.23 63.9989V64.7807C246.174 64.7807 246.118 64.7807 246.062 64.7248C246.006 64.669 245.951 64.669 245.895 64.669C245.839 64.669 245.783 64.6132 245.727 64.6132C245.671 64.6132 245.616 64.5573 245.616 64.5573C245.616 64.5573 245.616 64.5573 245.56 64.5573C245.504 64.5573 245.56 64.5573 245.504 64.5573L245.336 64.7807V64.8365C245.336 64.8365 245.336 64.8365 245.336 64.8924C245.336 64.9482 245.336 64.8924 245.336 64.8924C245.336 64.8924 245.336 64.8924 245.392 64.8924C245.448 64.8924 245.448 64.9482 245.504 64.9482C245.56 64.9482 245.616 65.004 245.727 65.004C245.783 65.004 245.895 65.0599 246.006 65.0599C246.118 65.0599 246.23 65.1157 246.341 65.1157V65.3391L246.397 65.3949H246.788L246.844 65.3391V65.1157C247.011 65.1157 247.123 65.0599 247.29 65.004C247.402 64.9482 247.514 64.8924 247.625 64.8365C247.737 64.7807 247.793 64.7248 247.849 64.6132C247.904 64.5573 247.904 64.4456 247.904 64.334C247.904 64.2223 247.849 64.1106 247.849 64.0548C247.793 63.9431 247.737 63.8872 247.625 63.8314C247.514 63.7756 247.402 63.7197 247.29 63.6639C247.179 63.608 247.067 63.5522 246.9 63.5522V62.8263C246.955 62.8263 246.955 62.8263 247.011 62.8821C247.067 62.8821 247.067 62.8821 247.123 62.938C247.179 62.9938 247.179 62.9938 247.235 62.9938C247.29 62.9938 247.29 63.0496 247.346 63.0496C247.346 63.0496 247.346 63.0496 247.402 63.0496C247.402 63.0496 247.402 63.0496 247.458 63.0496C247.514 63.0496 247.458 63.0496 247.514 63.0496C247.514 63.0496 247.514 63.0496 247.57 63.0496L247.793 62.8263C247.793 62.8263 247.793 62.8263 247.793 62.7704C247.793 62.7704 247.793 62.7704 247.793 62.7146C247.793 62.7146 247.793 62.7146 247.793 62.6587C247.793 62.6029 247.793 62.6587 247.737 62.6587C247.737 62.6587 247.681 62.6029 247.625 62.6029C247.57 62.6029 247.514 62.5471 247.458 62.5471C247.402 62.5471 247.29 62.4912 247.179 62.4912C247.067 62.4912 246.955 62.4354 246.844 62.4354V62.1562L246.62 62.1003Z" fill="#E18900"/>
  <path opacity="0.6" d="M254.492 72.0371C251.421 72.4837 250.249 73.8236 250.249 75.1634V82.9232C250.249 85.7704 243.773 85.3238 244.276 85.3796C247.681 85.7146 250.64 84.9888 250.64 84.9888L251.254 84.8213C253.934 84.2631 255.106 83.2582 255.106 82.03V78.6246C255.106 78.5688 255.106 78.513 255.106 78.4571C255.106 78.4013 255.106 78.3455 255.106 78.2897V74.8843C255.106 74.8284 255.106 74.7726 255.106 74.7168C255.106 74.6609 255.106 74.6051 255.106 74.5493L254.492 72.0371Z" fill="#E18900"/>
  <path d="M259.851 87.6131C264.569 87.6131 268.393 86.0884 268.393 84.2077C268.393 82.3269 264.569 80.8022 259.851 80.8022C255.134 80.8022 251.31 82.3269 251.31 84.2077C251.31 86.0884 255.134 87.6131 259.851 87.6131Z" fill="#FFA800"/>
  <path d="M268.337 80.8584H251.31V84.2647H268.337V80.8584Z" fill="#FFA800"/>
  <path d="M259.851 84.2629C264.569 84.2629 268.393 82.7383 268.393 80.8576C268.393 78.9768 264.569 77.4521 259.851 77.4521C255.134 77.4521 251.31 78.9768 251.31 80.8576C251.31 82.7383 255.134 84.2629 259.851 84.2629Z" fill="#FFC11D"/>
  <path d="M259.851 83.9278C264.569 83.9278 268.393 82.4031 268.393 80.5223C268.393 78.6416 264.569 77.1169 259.851 77.1169C255.134 77.1169 251.31 78.6416 251.31 80.5223C251.31 82.4031 255.134 83.9278 259.851 83.9278Z" fill="#FFA800"/>
  <path d="M268.337 77.1169H251.31V80.5232H268.337V77.1169Z" fill="#FFA800"/>
  <path d="M259.851 80.5232C264.569 80.5232 268.393 78.9986 268.393 77.1178C268.393 75.2371 264.569 73.7124 259.851 73.7124C255.134 73.7124 251.31 75.2371 251.31 77.1178C251.31 78.9986 255.134 80.5232 259.851 80.5232Z" fill="#FFC11D"/>
  <path d="M259.851 80.1885C264.569 80.1885 268.393 78.6639 268.393 76.7831C268.393 74.9023 264.569 73.3777 259.851 73.3777C255.134 73.3777 251.31 74.9023 251.31 76.7831C251.31 78.6639 255.134 80.1885 259.851 80.1885Z" fill="#FFA800"/>
  <path d="M268.337 73.4333H251.31V76.8396H268.337V73.4333Z" fill="#FFA800"/>
  <path d="M259.849 70.0273C257.784 70.0273 255.941 70.3065 254.49 70.8089C252.592 71.423 251.364 72.372 251.364 73.4327C251.364 75.275 255.16 76.8382 259.905 76.8382C263.143 76.8382 265.99 76.1124 267.442 75.0517C268.112 74.5493 268.447 74.0468 268.447 73.4327C268.335 71.5347 264.539 70.0273 259.849 70.0273Z" fill="#FFC11D"/>
  <path d="M260.075 74.3268V73.8243C260.131 73.8243 260.131 73.8801 260.186 73.8801L260.242 73.9359L260.298 73.9918V74.0476V74.1035C260.298 74.1035 260.298 74.1593 260.242 74.1593L260.186 74.2151C260.131 74.271 260.131 74.3268 260.075 74.3268ZM259.572 72.9867C259.516 72.9867 259.461 72.9308 259.461 72.9308C259.405 72.9308 259.405 72.875 259.349 72.875L259.293 72.8191C259.293 72.8191 259.293 72.7633 259.293 72.7074C259.293 72.6516 259.293 72.6516 259.293 72.5958L259.349 72.5399C259.349 72.5399 259.405 72.4841 259.461 72.4841C259.516 72.4841 259.516 72.4282 259.572 72.4282V72.9867ZM260.019 71.6465H259.628L259.572 71.7023V71.9815C259.405 71.9815 259.237 72.0374 259.126 72.0932C259.014 72.149 258.902 72.2049 258.791 72.2607C258.679 72.3166 258.623 72.4283 258.623 72.4841C258.567 72.5399 258.567 72.6516 258.567 72.7074C258.567 72.8191 258.623 72.9308 258.679 73.0425C258.735 73.1542 258.791 73.21 258.902 73.2659C259.014 73.3217 259.126 73.3775 259.237 73.4334C259.349 73.4892 259.461 73.5451 259.628 73.5451V74.3268C259.572 74.3268 259.516 74.3268 259.461 74.271C259.405 74.271 259.349 74.2151 259.293 74.2151C259.237 74.2151 259.181 74.1593 259.126 74.1593C259.07 74.1593 259.014 74.1035 259.014 74.1035C259.014 74.1035 259.014 74.1035 258.958 74.1035C258.958 74.1035 258.958 74.1035 258.902 74.1035L258.679 74.3268V74.3827C258.679 74.3827 258.679 74.3827 258.679 74.4385C258.679 74.4943 258.679 74.4385 258.679 74.4385C258.679 74.4385 258.679 74.4385 258.735 74.4385C258.791 74.4385 258.791 74.4943 258.847 74.4943C258.902 74.4943 258.958 74.5502 259.07 74.5502C259.126 74.5502 259.237 74.606 259.349 74.606C259.461 74.606 259.572 74.6619 259.684 74.6619V74.8852L259.74 74.9411H260.131L260.186 74.8852V74.6619C260.354 74.6619 260.466 74.606 260.577 74.5502C260.689 74.4943 260.8 74.4385 260.912 74.3827C261.024 74.3268 261.08 74.271 261.135 74.1593C261.191 74.1035 261.191 73.9918 261.191 73.8801C261.191 73.7684 261.135 73.6567 261.135 73.6009C261.08 73.4892 261.024 73.4334 260.912 73.3775C260.8 73.3217 260.689 73.2659 260.577 73.21C260.466 73.1542 260.354 73.0983 260.186 73.0983V72.3724C260.242 72.3724 260.242 72.3724 260.298 72.4282C260.354 72.4282 260.354 72.4283 260.41 72.4841C260.466 72.4841 260.466 72.5399 260.521 72.5399C260.577 72.5399 260.577 72.5958 260.633 72.5958C260.633 72.5958 260.633 72.5958 260.689 72.5958C260.689 72.5958 260.689 72.5958 260.745 72.5958C260.745 72.5958 260.745 72.5958 260.8 72.5958C260.856 72.5958 260.8 72.5958 260.856 72.5958L261.08 72.3724C261.08 72.3724 261.08 72.3724 261.08 72.3166C261.08 72.2607 261.08 72.3166 261.08 72.2607C261.08 72.2607 261.08 72.2607 261.08 72.2049C261.08 72.149 261.08 72.2049 261.024 72.2049C261.024 72.2049 260.968 72.149 260.912 72.149C260.856 72.149 260.8 72.0932 260.745 72.0932C260.689 72.0932 260.577 72.0374 260.466 72.0374C260.354 72.0374 260.242 71.9815 260.186 71.9815V71.7023L260.019 71.6465Z" fill="#E18900"/>
  <path d="M238.693 90.461C243.41 90.461 247.234 88.9363 247.234 87.0556C247.234 85.1748 243.41 83.6501 238.693 83.6501C233.976 83.6501 230.152 85.1748 230.152 87.0556C230.152 88.9363 233.976 90.461 238.693 90.461Z" fill="#FFA800"/>
  <path d="M247.179 83.6501H230.152V87.0564H247.179V83.6501Z" fill="#FFA800"/>
  <path d="M238.694 87.0545C243.411 87.0545 247.235 85.5298 247.235 83.6491C247.235 81.7683 243.411 80.2437 238.694 80.2437C233.976 80.2437 230.152 81.7683 230.152 83.6491C230.152 85.5298 233.976 87.0545 238.694 87.0545Z" fill="#FFC11D"/>
  <path d="M238.916 84.5434V84.0409C238.972 84.0409 238.972 84.0967 239.028 84.0967L239.084 84.1526L239.14 84.2084V84.2642V84.3201C239.14 84.3201 239.14 84.3759 239.084 84.3759L239.028 84.4318C238.972 84.5434 238.972 84.5434 238.916 84.5434ZM238.358 83.2591C238.302 83.2591 238.246 83.2033 238.246 83.2033C238.191 83.2033 238.19 83.1474 238.135 83.1474L238.079 83.0916C238.079 83.0916 238.079 83.0358 238.079 82.9799C238.079 82.9241 238.079 82.9241 238.079 82.8682L238.135 82.8124C238.135 82.8124 238.191 82.7565 238.246 82.7565C238.302 82.7565 238.302 82.7007 238.358 82.7007V83.2591ZM238.86 81.9189H238.47L238.414 81.9748V82.254C238.246 82.254 238.079 82.3098 237.967 82.3657C237.856 82.4215 237.744 82.4774 237.632 82.5332C237.521 82.589 237.465 82.7007 237.465 82.7565C237.409 82.8124 237.409 82.9241 237.409 82.9799C237.409 83.0916 237.465 83.2033 237.521 83.3149C237.576 83.4266 237.632 83.4825 237.744 83.5383C237.856 83.5942 237.967 83.65 238.079 83.7058C238.191 83.7617 238.302 83.8175 238.47 83.8175V84.5993C238.414 84.5993 238.358 84.5993 238.302 84.5434C238.246 84.5434 238.19 84.4876 238.135 84.4876C238.079 84.4876 238.023 84.4318 237.967 84.4318C237.911 84.4318 237.856 84.3759 237.856 84.3759C237.856 84.3759 237.856 84.3759 237.8 84.3759C237.8 84.3759 237.8 84.3759 237.744 84.3759L237.521 84.5993V84.6551C237.521 84.6551 237.521 84.6551 237.521 84.711C237.521 84.711 237.521 84.711 237.576 84.711C237.632 84.711 237.632 84.7668 237.688 84.7668C237.744 84.7668 237.8 84.8226 237.911 84.8226C237.967 84.8226 238.079 84.8785 238.19 84.8785C238.302 84.8785 238.414 84.9343 238.525 84.9343V85.1577L238.581 85.2135H238.972L239.028 85.1577V84.9343C239.195 84.9343 239.307 84.8785 239.419 84.8226C239.53 84.7668 239.642 84.711 239.754 84.6551C239.865 84.5993 239.921 84.5434 239.977 84.4318C240.033 84.3759 240.033 84.2642 240.033 84.1526C240.033 84.0409 239.977 83.9292 239.977 83.8734C239.921 83.7617 239.865 83.7058 239.754 83.65C239.642 83.5942 239.53 83.5383 239.419 83.4825C239.307 83.4266 239.195 83.3708 239.028 83.3708V82.6449C239.084 82.6449 239.084 82.6449 239.14 82.7007C239.195 82.7007 239.195 82.7007 239.251 82.7565C239.307 82.7565 239.307 82.8124 239.363 82.8124C239.419 82.8124 239.419 82.8682 239.475 82.8682C239.475 82.8682 239.475 82.8682 239.53 82.8682C239.53 82.8682 239.53 82.8682 239.586 82.8682C239.586 82.8682 239.586 82.8682 239.642 82.8682C239.642 82.8682 239.642 82.8682 239.698 82.8682L239.921 82.6449C239.921 82.6449 239.921 82.6449 239.921 82.589C239.921 82.589 239.921 82.589 239.921 82.5332C239.921 82.5332 239.921 82.5332 239.921 82.4773C239.921 82.4773 239.921 82.4773 239.865 82.4773C239.865 82.4773 239.809 82.4215 239.754 82.4215C239.698 82.4215 239.642 82.3657 239.586 82.3657C239.53 82.3657 239.419 82.3098 239.307 82.3098C239.195 82.3098 239.084 82.254 239.028 82.254V81.9748L238.86 81.9189Z" fill="#E18900"/>
  <path opacity="0.3" d="M247.178 83.6494C247.178 84.3193 246.62 84.9892 245.727 85.5475L233.333 81.0255C234.785 80.5789 236.627 80.2998 238.637 80.2998C243.382 80.2998 247.178 81.8071 247.178 83.6494Z" fill="#FFDB69"/>
  <path opacity="0.3" d="M268.337 73.3772C268.337 74.0471 267.779 74.717 266.886 75.2752L254.492 70.7533C255.944 70.3067 257.786 70.0276 259.796 70.0276C264.541 69.9717 268.337 71.5349 268.337 73.3772Z" fill="#FFDB69"/>
  <path opacity="0.3" d="M255.05 63.8867C255.05 64.5566 254.492 65.2266 253.599 65.7848L241.206 61.2629C242.657 60.8163 244.499 60.5371 246.509 60.5371C251.198 60.4813 255.05 61.9886 255.05 63.8867Z" fill="#FFDB69"/>
  <path d="M439.346 134.175C442.763 129.742 440.168 122.032 433.55 116.954C426.932 111.875 418.797 111.353 415.38 115.786C411.962 120.219 414.557 127.93 421.175 133.008C427.793 138.086 435.928 138.609 439.346 134.175Z" fill="#FFB519"/>
  <path d="M410.725 118.068C408.797 118.488 406.896 118.631 404.996 118.775C395.786 119.237 387.167 116.409 380.234 111.478C375.899 104.786 372.888 96.938 371.966 88.4042C371.739 86.5833 371.646 84.7719 371.686 82.9699C371.634 77.9682 372.237 73.1515 373.362 68.5104L399.835 85.9245C399.821 86.0624 399.821 86.0624 399.808 86.2003C399.887 95.0912 402.174 103.443 406.055 110.658C407.419 113.254 408.931 115.72 410.725 118.068Z" fill="#98DA77"/>
  <path d="M406.027 120.417C404.796 120.607 403.967 120.826 402.75 120.879C396.545 120.997 393.068 119.365 389.659 118.431C386.369 114.869 376.397 94.1874 378.298 81.5568L394.505 90.7458C395.158 100.643 400.091 110.841 402.724 115.605C403.647 117.196 404.837 118.806 406.027 120.417Z" fill="#C9F3B3"/>
  <path d="M439.5 131.948C437.102 132.772 434.597 133.304 432.091 133.836C430.005 134.256 427.946 134.394 425.751 134.522C406.978 135.459 390.292 126.023 380.542 111.112C387.558 116.161 396.28 119.058 405.599 118.585C407.658 118.447 409.582 118.3 411.397 117.86C413.063 117.553 414.607 117.094 416.151 116.635L439.5 131.948Z" fill="#8DD16A"/>
  <path d="M131.094 66.5663C126.778 65.2382 122.628 63.9101 118.644 62.582C121.798 66.5663 125.284 70.0526 128.936 72.7088L107.025 85.3258C95.7378 77.0251 85.1145 60.5898 81.4627 45.9806C78.3089 44.1545 75.487 42.4944 72.9972 41.0002C77.1469 62.4159 89.0983 81.6735 106.693 94.6225L140.721 74.867C137.401 72.3768 134.247 69.5546 131.094 66.5663Z" fill="#98DA77"/>
  <path d="M80.4669 40.0048L102.378 27.3878C104.037 38.5106 110.511 52.2897 118.811 62.7485C122.794 64.0766 126.944 65.4047 131.26 66.7328C117.483 52.9538 108.519 34.8583 106.361 15.2688L72.3335 35.0244C72.4995 37.0165 72.8314 39.1747 73.3294 41.1668C75.8192 42.6609 78.6411 44.4871 81.7949 46.1472C81.131 43.9891 80.6329 41.9969 80.4669 40.0048Z" fill="#8DD16A"/>
  <path d="M107.192 85.4919L129.102 72.8749C125.451 70.2187 122.131 66.7324 118.811 62.7481C103.208 57.2696 90.9248 51.2931 81.6294 46.1467C85.2812 60.7559 95.7385 77.0252 107.192 85.4919Z" fill="#C9F3B3"/>
  <path d="M102.378 27.2212L80.4669 39.8382C80.6329 41.8304 81.1309 43.8225 81.6289 45.9807C90.7583 51.1271 103.208 57.1035 118.811 62.582C110.511 52.2892 104.037 38.3441 102.378 27.2212Z" fill="#ACE190"/>
  <path d="M116.391 64.3646C124.744 64.3646 131.515 57.5949 131.515 49.2442C131.515 40.8934 124.744 34.1238 116.391 34.1238C108.038 34.1238 101.267 40.8934 101.267 49.2442C101.267 57.5949 108.038 64.3646 116.391 64.3646Z" fill="#FFB519"/>
  <path d="M167.108 146.445C170.785 151.451 176.367 153.6 179.575 151.245C182.782 148.889 182.401 142.922 178.723 137.916C175.045 132.91 169.464 130.761 166.256 133.116C163.049 135.472 163.43 141.439 167.108 146.445Z" fill="#FFDF94"/>
  <path d="M251.277 85.9634C254.955 90.9694 260.537 93.1183 263.744 90.763C266.952 88.4078 266.571 82.4403 262.893 77.4343C259.215 72.4283 253.634 70.2794 250.426 72.6347C247.218 74.9899 247.6 80.9574 251.277 85.9634Z" fill="#FFDF94"/>
  <path d="M120.776 128.308C115.136 125.704 109.954 124.911 109.203 126.538C108.452 128.165 112.415 131.595 118.055 134.199C123.696 136.803 128.877 137.595 129.629 135.968C130.38 134.342 126.417 130.912 120.776 128.308Z" fill="#FFDF94"/>
  <path d="M320.168 153.517C321.944 155.934 327.163 155.119 331.826 151.695C336.489 148.272 338.829 143.536 337.052 141.118C335.276 138.701 330.056 139.516 325.394 142.94C320.731 146.364 318.391 151.099 320.168 153.517Z" fill="#FFDF94"/>
  <path d="M406.709 19.4224C405.076 19.9831 405.503 25.5363 407.664 31.8257C409.824 38.1151 412.899 42.7591 414.533 42.1984C416.166 41.6377 415.738 36.0845 413.578 29.7951C411.417 23.5057 408.342 18.8617 406.709 19.4224Z" fill="#FFDF94"/>
  <path d="M57.8176 144.602C56.5578 144.622 55.6997 144.725 54.4674 144.612C48.1996 143.884 44.8601 141.804 41.517 140.42C38.5622 136.465 30.6058 114.741 33.8036 102.561L49.2106 113.815C48.8656 123.65 52.8044 134.364 54.9763 139.414C55.7449 141.107 56.7813 142.854 57.8176 144.602Z" fill="#98DA77"/>
  <path d="M45.3728 114.389L37.482 109.787C35.9038 117.676 40.989 131.92 43.4001 136.741L51.9486 140.028C46.0304 128.852 46.0304 118.772 45.3728 114.389Z" fill="#C9F3B3"/>
  <path d="M477.071 40.9654C479.794 44.6727 486.031 44.7197 491.001 41.0703C495.971 37.421 497.792 31.4573 495.068 27.75C492.345 24.0427 486.108 23.9957 481.138 27.6451C476.168 31.2944 474.347 37.2581 477.071 40.9654Z" fill="#FFDF94"/>
  <path d="M249.221 148.611C288.08 148.611 319.582 117.109 319.582 78.2498C319.582 39.3906 288.08 7.88892 249.221 7.88892C210.362 7.88892 178.861 39.3906 178.861 78.2498C178.861 117.109 210.362 148.611 249.221 148.611Z" fill="#D9EBFD"/>
  <path d="M293.668 81.7394C289.958 82.1232 286.376 80.2043 284.713 76.8782C281.131 69.7141 274.607 64.2132 266.803 62.0384L263.989 56.1537C263.477 55.1302 262.198 54.8744 261.43 55.7699L256.185 61.1429C255.929 61.1429 236.1 61.1429 236.1 61.1429C228.297 61.1429 221.133 64.3411 216.016 69.4583C213.073 72.4007 210.771 75.8547 209.363 79.8205C208.852 79.4367 208.468 79.1809 208.34 78.7971L208.084 78.4133C207.572 77.6458 206.677 77.134 205.781 77.2619C204.502 77.3899 203.734 78.5412 203.862 79.8205C203.99 80.716 204.246 81.4836 204.63 82.2512C205.014 83.0188 205.525 83.6584 206.037 84.1701C206.677 84.8098 207.316 85.3215 207.956 85.8332C207.828 86.9845 207.7 88.2638 207.7 89.5431C207.7 98.2422 211.666 106.046 217.807 111.291C222.668 115.385 225.738 121.269 226.378 127.666C226.506 128.434 227.145 129.073 227.913 129.073H237.124C237.891 129.073 238.659 128.434 238.659 127.666L239.682 118.071H255.801L256.825 127.666C256.953 128.434 257.592 129.073 258.36 129.073H267.571C268.338 129.073 269.106 128.434 269.106 127.666C269.745 121.269 272.816 115.385 277.677 111.291C278.317 110.779 278.956 110.268 279.468 109.628C281.771 107.325 283.69 104.639 285.097 101.568C286.504 98.6261 289.574 96.7072 292.9 96.963C293.028 96.963 293.156 96.963 293.284 97.0909L293.54 97.2188C293.924 97.3467 294.308 97.3467 294.564 97.2188C295.203 96.9629 295.587 96.4513 295.587 95.8116V83.5305C295.459 82.3791 294.691 81.7394 293.668 81.7394Z" fill="#FFB2A6"/>
  <path d="M238.81 65.7842C238.298 65.7842 237.914 65.4003 237.786 64.8885C237.786 64.3767 238.17 63.8648 238.682 63.8648C241.368 63.7369 244.055 63.6089 246.741 63.6089C249.428 63.6089 252.114 63.7369 254.801 63.8648C255.313 63.8648 255.696 64.3767 255.696 64.8885C255.696 65.4003 255.185 65.7842 254.673 65.7842C251.986 65.6563 249.428 65.5283 246.741 65.5283C244.183 65.5283 241.496 65.5283 238.81 65.7842Z" fill="#0E491F"/>
  <path d="M272.432 75.422C273.35 75.422 274.095 74.6773 274.095 73.7585C274.095 72.8398 273.35 72.095 272.432 72.095C271.513 72.095 270.769 72.8398 270.769 73.7585C270.769 74.6773 271.513 75.422 272.432 75.422Z" fill="#0E491F"/>
  <path d="M209.875 101.312C216.399 114.105 226.25 117.943 240.322 117.943C252.091 117.943 255.673 117.943 255.673 117.943C255.673 115.385 228.296 117.304 207.7 91.7178C207.7 91.8457 208.212 98.1142 209.875 101.312Z" fill="#F49586"/>
  <path d="M289.333 27.6111C289.333 28.2525 289.333 29.0542 289.333 29.6955C289.153 33.0628 287.715 36.1093 285.377 38.3541C282.499 39.7972 279.442 40.5989 276.025 40.7593C275.305 40.7593 274.586 40.7593 273.866 40.7593C271.888 40.5989 270.089 40.2783 268.291 39.7972L276.204 30.6576C276.204 30.6576 276.204 30.6576 276.384 30.6576C279.981 30.818 283.218 30.1766 286.276 29.0542C287.355 28.7335 288.434 28.2525 289.333 27.6111Z" fill="#278D00"/>
  <path d="M289.333 28.926C289.333 29.4781 289.333 29.8462 289.333 30.2143C289.16 32.7908 288.293 34.0791 287.946 35.5514C286.559 36.8396 278.234 40.3363 273.552 39.2321L277.714 32.7908C281.529 32.7908 285.518 31.1345 287.426 30.0303C287.946 29.6622 288.64 29.2941 289.333 28.926Z" fill="#43AD2A"/>
  <path d="M295.558 17.0928C295.734 17.921 295.909 18.9149 295.909 19.9087C295.909 20.737 295.909 21.3995 295.909 22.2278C295.558 29.1849 291.35 34.9826 285.388 38.1299C287.492 35.6452 288.895 32.4979 289.246 29.185C289.246 28.5224 289.246 27.6942 289.246 27.0316C289.246 26.369 289.07 25.872 288.895 25.2094L295.558 17.0928Z" fill="#217700"/>
  <path d="M223.448 28.2773C221.622 27.7154 219.866 27.1535 218.181 26.5917C219.515 28.2773 220.99 29.7523 222.535 30.8761L213.265 36.214C208.49 32.7022 203.995 25.7488 202.45 19.568C201.116 18.7954 199.922 18.0931 198.869 17.4609C200.624 26.5214 205.681 34.6688 213.125 40.1473L227.521 31.7892C226.117 30.7356 224.782 29.5416 223.448 28.2773Z" fill="#43AD2A"/>
  <path d="M202.029 17.0394L211.299 11.7015C212.001 16.4073 214.74 22.2369 218.251 26.6618C219.937 27.2237 221.692 27.7856 223.518 28.3474C217.689 22.5178 213.897 14.8621 212.984 6.57422L198.588 14.9323C198.658 15.7752 198.798 16.6882 199.009 17.5311C200.063 18.1632 201.256 18.9358 202.591 19.6382C202.31 18.7251 202.099 17.8823 202.029 17.0394Z" fill="#278D00"/>
  <path d="M213.336 36.2844L222.605 30.9465C221.061 29.8227 219.656 28.3477 218.251 26.6621C211.65 24.3443 206.453 21.8158 202.521 19.6384C204.066 25.8192 208.49 32.7024 213.336 36.2844Z" fill="#70CD51"/>
  <path d="M211.299 11.6326L202.029 16.9705C202.099 17.8134 202.31 18.6562 202.521 19.5693C206.383 21.7466 211.65 24.2751 218.251 26.5929C214.74 22.2382 212.001 16.3384 211.299 11.6326Z" fill="#43AD2A"/>
  <path d="M233.547 54.3241C232.336 55.0166 231.297 56.0554 230.431 57.2673H218.315C220.392 54.4972 223.508 52.5928 227.316 52.5928C227.835 52.5928 233.374 52.5928 233.374 52.5928L233.547 54.3241Z" fill="#43AD2A"/>
  <path d="M227.317 52.5925H243.241C249.299 52.5925 254.318 57.6121 254.318 63.6703V63.8434H238.394V63.6703C238.394 57.6121 233.375 52.5925 227.317 52.5925Z" fill="#278D00"/>
  <path d="M234.932 52.5925C237.702 53.9773 241.337 58.6507 241.337 63.8434H251.03C251.03 63.6703 251.03 63.3241 251.03 63.151C251.03 58.4776 247.222 53.458 242.548 52.5925H234.932Z" fill="#43AD2A"/>
</svg>
