<svg width="14" height="14" viewBox="0 0 14 14" fill="none" xmlns="http://www.w3.org/2000/svg">
<path d="M6.99992 0.333374C3.33325 0.333374 0.333252 3.33337 0.333252 7.00004C0.333252 9.83337 2.08325 12.25 4.58325 13.1667C4.49992 12.6667 4.49992 11.8334 4.58325 11.25C4.66659 10.75 5.33325 7.91671 5.33325 7.91671C5.33325 7.91671 5.16659 7.58337 5.16659 7.00004C5.16659 6.08337 5.74992 5.33337 6.41659 5.33337C6.99992 5.33337 7.24992 5.75004 7.24992 6.25004C7.24992 6.83337 6.91659 7.66671 6.66659 8.50004C6.49992 9.16671 6.99992 9.66671 7.66659 9.66671C8.83325 9.66671 9.74992 8.41671 9.74992 6.58337C9.74992 5.00004 8.58325 3.83337 6.99992 3.83337C5.08325 3.83337 3.99992 5.25004 3.99992 6.75004C3.99992 7.33337 4.24992 7.91671 4.49992 8.25004C4.49992 8.41671 4.49992 8.50004 4.49992 8.58337C4.41659 8.83337 4.33325 9.25004 4.33325 9.33337C4.33325 9.41671 4.24992 9.50004 4.08325 9.41671C3.24992 9.00004 2.74992 7.83337 2.74992 6.83337C2.74992 4.75004 4.24992 2.83337 7.16658 2.83337C9.49992 2.83337 11.2499 4.50004 11.2499 6.66671C11.2499 9.00004 9.83325 10.8334 7.74992 10.8334C7.08325 10.8334 6.41659 10.5 6.24992 10.0834C6.24992 10.0834 5.91659 11.3334 5.83325 11.6667C5.66659 12.25 5.24992 13 4.99992 13.4167C5.66659 13.5834 6.33325 13.6667 6.99992 13.6667C10.6666 13.6667 13.6666 10.6667 13.6666 7.00004C13.6666 3.33337 10.6666 0.333374 6.99992 0.333374Z" fill="white"/>
</svg>
