<svg width="14" height="11" viewBox="0 0 14 11" fill="none" xmlns="http://www.w3.org/2000/svg">
<path d="M13.6666 1.25C13.1666 1.5 12.6666 1.58333 12.0833 1.66667C12.6666 1.33333 13.0833 0.833333 13.2499 0.166667C12.7499 0.5 12.1666 0.666667 11.4999 0.833333C10.9999 0.333333 10.2499 0 9.49992 0C8.08325 0 6.83325 1.25 6.83325 2.75C6.83325 3 6.83325 3.16667 6.91658 3.33333C4.66658 3.25 2.58325 2.16667 1.24992 0.5C0.999919 0.916667 0.916585 1.33333 0.916585 1.91667C0.916585 2.83333 1.41659 3.66667 2.16659 4.16667C1.74992 4.16667 1.33325 4 0.916585 3.83333C0.916585 5.16667 1.83325 6.25 3.08325 6.5C2.83325 6.58333 2.58325 6.58333 2.33325 6.58333C2.16659 6.58333 1.99992 6.58333 1.83325 6.5C2.16659 7.58333 3.16658 8.41667 4.41658 8.41667C3.49992 9.16667 2.33325 9.58333 0.999919 9.58333C0.749919 9.58333 0.583252 9.58333 0.333252 9.58333C1.58325 10.3333 2.99992 10.8333 4.49992 10.8333C9.49992 10.8333 12.2499 6.66667 12.2499 3.08333C12.2499 3 12.2499 2.83333 12.2499 2.75C12.8333 2.33333 13.3333 1.83333 13.6666 1.25Z" fill="white"/>
</svg>
