<svg width="50" height="125" viewBox="0 0 50 125" fill="none" xmlns="http://www.w3.org/2000/svg">
<path d="M50 9.61538C50 11.5301 49.3671 13.1119 48.1013 14.3606C46.9198 15.5261 45.3586 16.1089 43.4177 16.1089C41.3924 16.1089 39.9156 15.651 38.9873 14.7353C38.1435 13.7363 37.4684 12.6956 36.962 11.6134C36.5401 10.4479 36.1181 9.40726 35.6962 8.4915C35.3586 7.49251 34.7257 6.99301 33.7975 6.99301C32.8692 6.99301 32.2785 7.36763 32.0253 8.11688C31.8565 8.86613 31.7722 9.57376 31.7722 10.2398C31.7722 12.8205 31.8565 15.3596 32.0253 17.8571C32.1941 20.3547 32.2785 22.8938 32.2785 25.4745V99.026C32.2785 102.189 32.0675 105.311 31.6456 108.392C31.2236 111.472 30.3797 114.219 29.1139 116.633C27.8481 119.131 25.9916 121.129 23.5443 122.627C21.1814 124.209 18.0169 125 14.0506 125C12.5316 125 10.9283 124.834 9.24051 124.501C7.63713 124.168 6.11814 123.626 4.68354 122.877C3.33333 122.128 2.19409 121.129 1.26582 119.88C0.421941 118.715 0 117.258 0 115.51C0 113.595 0.632912 112.013 1.89873 110.764C3.16456 109.516 4.76793 108.891 6.70886 108.891C8.73418 108.891 10.1688 109.349 11.0127 110.265C11.9409 111.264 12.616 112.304 13.038 113.387C13.5443 114.552 13.9662 115.593 14.3038 116.509C14.6413 117.508 15.2321 118.007 16.0759 118.007C16.7511 118.007 17.2152 117.757 17.4684 117.258C17.8059 116.842 18.0169 116.3 18.1013 115.634C18.27 115.052 18.3122 114.427 18.2278 113.761C18.2278 113.179 18.2278 112.679 18.2278 112.263C18.2278 110.098 18.1435 107.975 17.9747 105.894C17.8059 103.813 17.7215 101.69 17.7215 99.5255V36.3387C17.7215 34.0077 17.6793 31.5102 17.5949 28.8462C17.5949 26.0989 17.6793 23.3933 17.8481 20.7293C18.0169 17.982 18.3966 15.3596 18.9873 12.8621C19.6624 10.3646 20.6751 8.1585 22.0253 6.24375C23.3755 4.329 25.1899 2.8305 27.4684 1.74825C29.7468 0.582752 32.616 0 36.076 0C37.5105 0 39.0295 0.208125 40.6329 0.624375C42.3207 0.957376 43.8397 1.4985 45.1899 2.24775C46.6245 2.997 47.7637 3.996 48.6076 5.24475C49.5359 6.41026 50 7.86713 50 9.61538Z" fill="#1F51E5"/>
</svg>
